<svg xmlns="http://www.w3.org/2000/svg" viewBox="0 0 117 36"><g class="prefix__text"><path d="M66.8 18.5c-.1-.1-.1-.1-.2-.1h-.1-.1c-5.6 4.9-11.2 7.4-18.3 8H48l-.1.1v.2l1 1.4s0 .1.1.1h.1c7.3-.9 12.7-3.3 18.5-8.3 0 0 .1-.1.1-.2v-.2l-.9-1zM57.7 21.3h1.6c.1 0 .2-.1.2-.2V7.7c0-.1-.1-.2-.2-.2h-1.6c-.1 0-.2.1-.2.2V21c-.1.2 0 .3.2.3zM48.3 19.6h2l.1-.1 3.9-8.5v-.1-.1l-.1-.1H52.3h-.1l-.1.1-3.8 8.5v.1s-.1.1 0 .2c-.1-.1 0-.1 0 0zM65 10.8c-.1-.1-.1-.1 0 0-.1-.1-.2-.1-.2-.1h-1.9-.1l-.1.1v.2l3.3 5.8s0 .1.1.1h2.1l.1-.1v-.1-.1L65 10.8zM115.2 9.3s.1-.1 0 0c.1-.1.1-.1.2-.1v-.1V9l-.9-1.3-.1-.1h-.1l-.7.2c-3 .8-5.4 1.5-11.1 1.4-.1 0-.1 0-.2.1 0 .1-.1.1-.1.2v9.2c0 1.4-.2 2.8-.5 4.1-.2.9-.5 1.8-.8 2.7l-.8 2.1v.2c0 .1.1.1.1.1l1.4.5h.2c.1 0 .1-.1.1-.1l.8-2.1c.3-.9.6-1.8.8-2.7l.1-.3c.3-1.4.5-2.9.5-4.4v-7.4c0-.1 0-.1.1-.2 0 0 .1-.1.2-.1 5.2-.1 7.5-.7 10.6-1.7l.2-.1zM98.3 17.9s0 .1 0 0c.1.1.2.1.2.1h.1l1.4-.9c.1 0 .1-.1.1-.1v-.1-.1l-1.5-2.4v-.1-.1-.1s0-.1.1-.1l1.9-1.2.1-.1v-.1-.1-.1l-.6-1v-.1l-2.5-3.8c0-.1-.1-.1-.1-.1h-.2l-1.4.9-.1.1V8.7l2 3.1V12.1s0 .1-.1.1l-1.9 1.2-.1.1V13.8l2.6 4.1zM101 19.3c0-.1 0-.1-.1-.2h-.1l-1.5-.6h-.1-.1s-.1 0-.1.1v.1l-3.5 8.9v.2s0 .1.1.1h.1l1.5.6h.2s.1 0 .1-.1v-.1l3.5-9c0 .1 0 .1 0 0z"/><path d="M116.5 27.5l-2.1-2.9c-.3-.4-.5-.8-.8-1.3l-.7-1.4c-.3-.6-.5-1.1-.7-1.7v-.1l.1-.1 3.4-1.4c.1 0 .1-.1.1-.1v-.2l-.6-1.4s0-.1-.1-.1h-.1-.1-.1l-3.1 1.3h-.1-.1l-.1-.1v-.1l-1-3.7v-.1-.1l.1-.1h.1c1.1-.2 2.1-.4 3.1-.6l1-.2h.1l.1-.1v-.1-.1l-.8-1.4-.1-.1h-.1l-1 .2c-2.5.6-5 .9-7.6.9h-.1-.1s-.1.1-.1.2v15.5c0 .1 0 .1.1.2 0 0 .1.1.2.1h4.7c.1 0 .1 0 .2-.1 0 0 .1-.1.1-.2v-1.5c0-.1 0-.1-.1-.2 0 0-.1-.1-.2-.1h-2.8c-.1 0-.1 0-.1-.1l-.1-.1V14.4v-.1l.1-.1c.4 0 .7 0 1.1-.1h.1l.1.1 1.6 6.2c.2.8.5 1.5.8 2.2l.9 1.7c.2.5.5 1 .9 1.4l1.8 2.5s0 .1.1.1h.2l1.5-.5s.1 0 .1-.1c0 0 0-.1.1-.1.2.1.2.1.1-.1.1.1 0 .1 0 0zM71.9 13.6h4.3c.1 0 .1 0 .1.1l.1.1v4.3c0 .1 0 .1.1.2s.1.1.2.1h1.6c.1 0 .1 0 .2-.1s.1-.1.1-.2v-4.3-.1-.1H83.2c.1 0 .1 0 .2-.1 0 0 .1-.1.1-.2v-1.5c0-.1 0-.1-.1-.2s-.1-.1-.2-.1h-2.3L83.1 9s.1-.1.1-.2 0-.1-.1-.2l-1.3-1.1s-.1-.1-.2-.1-.1 0-.2.1l-2.3 2.7s-.1.1-.1.2 0 .1.1.2l1.2 1.1h-1.8c-.1 0-.1 0-.1-.1l-.1-.1V7.7c0-.1 0-.1-.1-.2 0 0-.1-.1-.2-.1h-1.6c-.1 0-.1 0-.2.1 0 0-.1.1-.1.2v3.8c0 .1 0 .1-.1.1l-.1.1h-2l1.4-.7c.1 0 .1-.1.1-.1v-.1-.1l-1.6-3.1c0-.1-.1-.1-.1-.1h-.2l-1.5.7c-.1 0-.1.1-.1.1v.2l1.6 3.1s0 .1.1.1h-2.1c-.1 0-.1 0-.2.1 0 0-.1.1-.1.2v1.5c0 .1 0 .1.1.2.5-.1.5-.1.6-.1z"/><path d="M74.6 13.7s-.1 0 0 0c-.1-.1-.1-.1-.2-.1h-.1s-.1 0-.1.1l-2.4 2.8s-.1.1-.1.2v.1s0 .1.1.1l1.3 1.1.1.1h.1s.1 0 .1-.1l2.4-2.8v-.1-.1-.1s0-.1-.1-.1l-1.1-1.1zM80.8 13.7h-.2-.1l-1.3 1-.1.1V15.1l2 2.8.1.1h.2l1.3-1s.1-.1.1-.2v-.2l-2-2.9c.1 0 .1 0 0 0zM83.4 26.8l-3.5-1.6c.8-.6 1.6-1.2 2.3-2l1.1-1.1.2-.2c0-.1.1-.2.1-.3v-1.7c0-.1-.1-.3-.1-.3-.1-.1-.2-.1-.3-.1h-5.6l.2-.3v-.1-.1s0-.1-.1-.1h-2.2-.1l-.1.1-.3.6h-2.7c-.1 0-.3.1-.3.1-.1.1-.1.2-.1.3v1c0 .1.1.3.1.3.1.1.2.1.3.1h1.3l.1.1v.2l-1.1 2V24l.1.1 1.9.9.9.4-.5.1c-.4.2-.7.3-1.1.4l-2 .6c-.1 0-.1 0-.2.1l-.1.1c0 .1 0 .1-.1.2v.2l.4 1.2c0 .1.1.1.1.1h.2l1.8-.6c.7-.2 1.4-.5 2-.8l1.5-.6h.2l3.8 1.8c.1 0 .2.1.3 0 .1 0 .2-.1.3-.1l1.3-1.1.1-.1v-.1c.1.1 0 .1-.1 0 .1 0 .1 0 0 0zm-5.5-2.6h-.1-.1l-2-.9c-.1 0-.1-.1-.1-.1l-.1-.1v-.2c0-.1 0-.1.1-.2l.7-1.1c0-.1.1-.1.2-.2.1 0 .2-.1.3-.1h4.7l-.9.7c-.5.5-1.1 1-1.8 1.5l-.9.7z"/><path d="M90.3 24.5l-.7-.8s-.1-.1-.1-.2 0-.1.1-.2l.3-.4c.8-1.1 1.4-2.3 1.7-3.6l.2-.8c.2-.8.3-1.5.3-2.3V9.4c0-.1 0-.1-.1-.2 0 0-.1-.1-.2-.1h-5.4V7.7c0-.1 0-.1-.1-.2 0 0-.1-.1-.2-.1h-1.6c-.1 0-.1 0-.2.1 0 0-.1.1-.1.2v3.1c0 .1 0 .1.1.2s.1.1.2.1H89.9V16c0 .7-.1 1.5-.3 2.2v.1c-.3 1.1-.7 2.2-1.4 3.2l-.1.1H88h-.1l-.1-.1c-.6-1-1.1-2-1.3-3.2l-.1-.3c-.1-.7-.2-1.4-.2-2.1V12c0-.1 0-.1-.1-.2 0 0-.1-.1-.2-.1h-1.6-.1s-.1 0-.1.1c0 0-.1.1-.1.2v4.3c0 .7.1 1.4.2 2.2l.2.8c.3 1.4.9 2.6 1.7 3.8l.3.4s.1.1.1.2 0 .1-.1.2l-.8 1-2.1 2.3V27.5s0 .1.1.1l1.2 1.1s.1.1.2.1.1 0 .2-.1l2.7-2.9.1-.1h.2s.1 0 .1.1l2.6 2.9s.1.1.2.1h.2l1.2-1.1s.1-.1.1-.2 0-.1-.1-.2l-2.2-2.8z"/></g><path d="M18 0C8.1 0 0 8.1 0 18s8.1 18 18 18 18-8.1 18-18S27.9 0 18 0zm8.9 11.6c0 .2-.1.3-.2.5-.1.1-.3.2-.4.2l-3.3.6v8.3c0 .5.1 1 .3 1.4l2.1 4c.1.1.1.2.1.3 0 .1 0 .2-.1.3-.1.1-.1.2-.3.2-.1.1-.2.1-.3.1H23c-.1 0-.3 0-.4-.1l-.3-.3-2.1-3.9c-.2-.5-.4-1-.4-1.5v-8.4l-4.6.8v11.4c0 .2 0 .4-.1.5-.1.2-.2.3-.4.4l-1.3.8c-.1.1-.3.1-.4.1s-.3 0-.4-.1l-.3-.3c-.1-.1-.1-.3-.1-.4v-12l-3.4.6h-.4c-.1 0-.2-.1-.3-.2 0 0-.1-.1-.1-.3 0-.1-.1-.2 0-.4l.2-1.4c0-.2.1-.3.2-.5.1-.1.3-.2.5-.2l17.4-2.9h.4c.1 0 .2.1.3.2-.1.1 0 .2 0 .3 0 .1.1.2 0 .4l-.1 1.5z" fill="#da282a"/><path d="M26.147 9.219L8.778 12.13a.804.804 0 00-.668.697l-.179 1.448a.804.804 0 00.924.893l3.39-.567v12.017a.807.807 0 001.254.672l1.29-.835a1.119 1.119 0 00.5-.925V14.093l4.64-.776v8.448c0 .517.127 1.026.37 1.482l2.06 3.867a.675.675 0 00.617.363h1.76a.686.686 0 00.616-.998l-2.07-3.971a3.183 3.183 0 01-.349-1.445V12.81l3.303-.554a.804.804 0 00.665-.697l.18-1.448a.803.803 0 00-.934-.893z" fill="#fff"/></svg>