<?xml version="1.0" encoding="utf-8"?>
<!-- Generator: Adobe Illustrator 24.2.3, SVG Export Plug-In . SVG Version: 6.00 Build 0)  -->
<svg version="1.2" baseProfile="tiny" id="图层_1"
	 xmlns="http://www.w3.org/2000/svg" xmlns:xlink="http://www.w3.org/1999/xlink" x="0px" y="0px" viewBox="0 0 70 32"
	 overflow="visible" xml:space="preserve">
<g>
	<path fill="#0355E3" d="M20.4661,18.7491c-0.0479-0.018-0.1117-0.008-0.2394,0.012l-1.1572,0.1835
		c-0.0958,0.014-0.1436,0.022-0.1796,0.0459c-0.0319,0.022-0.0558,0.0519-0.0718,0.0858c-0.0179,0.0379-0.0179,0.0858-0.0179,0.1835
		v1.0116c0,1.0175-0.02,1.1232-0.0419,1.1891c-0.0379,0.1157-0.0978,0.2214-0.1796,0.3112
		c-0.0459,0.0519-0.1277,0.1216-1.0074,0.6305l-3.5194,2.031c-0.8819,0.5068-0.9836,0.5427-1.0514,0.5566
		c-0.1178,0.026-0.2415,0.026-0.3593,0c-0.0677-0.0139-0.1716-0.0478-1.0514-0.5566l-3.5193-2.031
		c-0.8799-0.5068-0.9617-0.5786-1.0076-0.6305c-0.0818-0.0898-0.1417-0.1956-0.1796-0.3112
		c-0.0219-0.0659-0.0419-0.1736-0.0419-1.1891v-4.0641c0-1.0175,0.02-1.1232,0.0419-1.1891
		c0.0379-0.1157,0.0978-0.2214,0.1796-0.3112c0.0459-0.0519,0.1277-0.1216,1.0076-0.6305l3.5193-2.031
		c0.8818-0.5088,0.9836-0.5447,1.0514-0.5586c0.1177-0.026,0.2415-0.026,0.3593,0c0.0677,0.0159,0.1714,0.0498,1.0514,0.5586
		l1.9891,1.0634c0.0359,0.0219,0.0539,0.0319,0.0738,0.0379c0.018,0.006,0.0359,0.01,0.0539,0.01
		c0.0165,0.0016,0.033-0.0008,0.062-0.0051l0.0199-0.0029l-0.002,0.002l0.8938-0.1397c0.0958-0.0139,0.1437-0.0219,0.1796-0.0458
		c0.0319-0.02,0.0558-0.0499,0.0718-0.0838c0.018-0.0399,0.018-0.0878,0.018-0.1855v-0.6803c0-0.0679,0-0.1018-0.01-0.1317
		c-0.01-0.0259-0.024-0.0519-0.0419-0.0718c-0.0178-0.0214-0.0435-0.0364-0.09-0.0635l-0.0178-0.0103l-2.3043-1.247
		c-0.774-0.4469-1.1612-0.6703-1.5742-0.7581c-0.3631-0.0778-0.7402-0.0778-1.1053,0c-0.4041,0.0844-0.7852,0.3038-1.5358,0.736
		l-0.0383,0.0221l-3.5349,2.0411c-0.7625,0.4402-1.1478,0.6627-1.427,0.9735c-0.2494,0.2774-0.4369,0.6026-0.5526,0.9577
		c-0.1297,0.401-0.1297,0.8479-0.1297,1.7437v4.0641c0,0.8958,0,1.3427,0.1297,1.7437c0.1157,0.3551,0.3032,0.6803,0.5526,0.9577
		c0.2813,0.3112,0.6684,0.5367,1.4445,0.9836l3.5194,2.031c0.7741,0.4469,1.1611,0.6703,1.5741,0.7581
		c0.3632,0.0778,0.7402,0.0778,1.1053,0c0.4042-0.0843,0.7852-0.3038,1.5358-0.736l3.5753-2.0632
		c0.7624-0.4402,1.1478-0.6627,1.4269-0.9735c0.2494-0.2774,0.437-0.6026,0.5527-0.9577c0.1297-0.401,0.1297-0.8479,0.1297-1.7437
		v-1.1951c0-0.1297,0-0.1935-0.026-0.2394C20.5459,18.797,20.51,18.7651,20.4661,18.7491z"/>
	<path fill="#0355E3" d="M16.0908,16.4309c0.1078-0.0159,0.2055-0.0638,0.2813-0.1396c0.0778-0.0758,0.1277-0.1756,0.1417-0.2774
		l0.0938-0.6085c0.0119-0.0778,0.0019-0.1576-0.026-0.2314c-0.0259-0.0718-0.0718-0.1377-0.1297-0.1895
		c-0.0578-0.0519-0.1257-0.0898-0.2015-0.1118c-0.0479-0.0119-0.0957-0.0199-0.1456-0.0199c-0.0279,0-0.0579,0.002-0.0838,0.006
		l-6.6677,1.0474c-0.1077,0.016-0.2054,0.0639-0.2813,0.1397c-0.0778,0.0758-0.1277,0.1755-0.1416,0.2773l-0.0938,0.6085
		c-0.0099,0.0758-0.002,0.1556,0.0259,0.2274c0.028,0.0719,0.0718,0.1377,0.1297,0.1896c0.0558,0.0499,0.1237,0.0898,0.1995,0.1117
		c0.0499,0.014,0.0997,0.022,0.1496,0.022c0.0259,0,0.0519-0.002,0.0798-0.006l1.0714-0.1676v4.0162
		c0,0.0917,0.026,0.1795,0.0758,0.2573c0.0479,0.0758,0.1157,0.1377,0.1975,0.1776c0.0739,0.0379,0.1537,0.0558,0.2355,0.0558
		h0.0239c0.0898-0.0038,0.1776-0.0319,0.2514-0.0778l0.4988-0.3012c0.0858-0.0539,0.1576-0.1277,0.2075-0.2135
		c0.0498-0.0898,0.0778-0.1875,0.0778-0.2893v-3.8705l1.3826-0.2175v2.7313c0,0.2195,0.0579,0.439,0.1676,0.6325l0.7901,1.3886
		c0.0399,0.0738,0.1017,0.1337,0.1755,0.1756c0.0699,0.0379,0.1497,0.0578,0.2296,0.0578l-0.004,0.006h0.6843
		c0.0778,0,0.1536-0.02,0.2195-0.0539c0.0698-0.0359,0.1296-0.0878,0.1715-0.1536c0.0439-0.0678,0.0679-0.1436,0.0719-0.2215
		c0.004-0.0778-0.016-0.1556-0.0539-0.2274l-0.7941-1.4285c-0.0718-0.1317-0.1097-0.2793-0.1097-0.425v-2.7233L16.0908,16.4309z"/>
	<path fill="#0355E3" d="M21.8706,13.8751l-1.2725,0.2037v-1.1692c0-0.1098-0.0878-0.1856-0.1975-0.1676l-0.7881,0.1257
		c-0.4349,0.0698-0.7881,0.4828-0.7881,0.9237v0.5714l-0.5051,0.0809c-0.4349,0.0677-0.826,0.4788-0.8718,0.9177l-0.0739,0.6943
		c-0.0119,0.1098,0.0659,0.1855,0.1756,0.1676l1.2752-0.2042v1.164c0,0.1097,0.0878,0.1856,0.1976,0.1676l0.788-0.1237
		c0.435-0.0698,0.7881-0.4828,0.7881-0.9237v-0.5682l0.5024-0.0804c0.4349-0.0678,0.826-0.4788,0.8719-0.9177l0.0738-0.6943
		C22.0582,13.9329,21.9784,13.8571,21.8706,13.8751z"/>
	<path fill="#0355E3" d="M30.0593,11.3321c-0.5015-0.1745-1.0634-0.2124-1.6857-0.1139l-1.9226,0.3045l-0.4772,0.0756l-0.0383,0.006
		l-1.6717,0.2648v9.9583l2.1872-0.3464V17.856l1.9226-0.3045c0.6223-0.0985,1.1842-0.3145,1.6857-0.6478
		c0.5015-0.3428,0.8963-0.772,1.1842-1.2878c0.2972-0.5266,0.4458-1.1144,0.4458-1.7632c0-0.6489-0.1486-1.1848-0.4458-1.6079
		C30.9556,11.8108,30.5608,11.5066,30.0593,11.3321z M29.3209,15.0177c-0.13,0.2369-0.3065,0.4294-0.5294,0.5775
		c-0.2229,0.1482-0.469,0.2436-0.7383,0.2862l-1.6022,0.2537v-2.8916l1.6022-0.2537c0.2693-0.0426,0.5154-0.0252,0.7383,0.0524
		c0.2229,0.0775,0.3994,0.2141,0.5294,0.4099c0.1301,0.1957,0.1951,0.444,0.1951,0.7449
		C29.516,14.5072,29.451,14.7808,29.3209,15.0177z"/>
	<path fill="#0355E3" d="M38.6286,15.081c0.5015-0.324,0.8916-0.7243,1.1702-1.201c0.2786-0.486,0.418-1.0206,0.418-1.6036
		c0-0.5736-0.1394-1.0594-0.418-1.4572c-0.2786-0.3978-0.6641-0.68-1.1563-0.8466c-0.4923-0.1759-1.0635-0.2124-1.7136-0.1094
		l-2.3405,0.3707v0.0001l-1.6718,0.2648v9.9583l2.1873-0.3464v-4.1047l0.2286-0.0362l2.9338,3.64l2.5913-0.4104l-3.1578-3.6855
		C38.0346,15.4004,38.3487,15.2617,38.6286,15.081z M36.6642,14.1226l-1.5603,0.2471v-2.4966l1.5742-0.2493
		c0.4365-0.0692,0.7709-0.0046,1.0031,0.1937c0.2322,0.1984,0.3483,0.4762,0.3483,0.8335c0,0.3856-0.1207,0.7103-0.3622,0.9742
		C37.4351,13.8877,37.1007,14.0535,36.6642,14.1226z"/>
	<polygon fill="#0355E3" points="41.8143,19.0478 44.0016,18.7013 44.0016,8.743 41.8143,9.0895 	"/>
	<polygon fill="#0355E3" points="50.9315,13.1257 47.4562,8.1959 45.8958,8.443 45.8958,18.4013 48.0692,18.0571 48.0692,12.5322 
		50.2007,15.5755 51.6496,15.346 53.7811,11.6461 53.7811,17.1524 55.9684,16.806 55.9684,6.8477 54.3941,7.097 	"/>
	<polygon fill="#0355E3" points="60.042,14.2424 60.042,11.9998 64.4304,11.3047 64.4304,9.4569 60.042,10.1519 60.042,8.1067 
		64.8484,7.3455 64.8484,5.4412 59.5265,6.2841 59.5265,6.2842 57.8547,6.549 57.8547,16.5072 60.042,16.1608 60.042,16.1607 
		64.918,15.3885 64.918,13.4702 	"/>
</g>
</svg>
